<svg width="473" height="136" viewBox="0 0 473 136" fill="none" xmlns="http://www.w3.org/2000/svg">
<path d="M0.85 47.35L0.85 46.5L1.87 46.5C1.58667 46.67 1.445 46.84 1.445 47.01L1.785 47.18L8.67 48.965L11.985 50.155C13.0617 50.5517 13.6283 51.2883 13.685 52.365C13.685 52.9317 13.685 53.4983 13.685 54.065C13.685 55.595 13.6567 56.6717 13.6 57.295C13.6 58.5417 13.6 59.76 13.6 60.95C13.6 63.0467 13.6 64.2933 13.6 64.69C13.77 68.26 13.8833 70.9233 13.94 72.68C13.94 72.9633 13.94 73.87 13.94 75.4C13.94 76.9867 13.94 77.9217 13.94 78.205C13.8267 80.6983 13.7417 82.5683 13.685 83.815C13.685 83.985 13.685 84.495 13.685 85.345C13.685 85.9117 13.685 86.45 13.685 86.96L14.195 75.995L14.195 74.805C13.9117 70.7817 13.77 66.4467 13.77 61.8C13.77 60.3267 13.77 58.8533 13.77 57.38C13.9967 55.2267 14.1667 53.98 14.28 53.64C14.9033 51.94 15.725 50.835 16.745 50.325C17.0283 50.2117 17.1983 50.07 17.255 49.9L19.38 48.88C19.6633 48.7667 20.485 48.6533 21.845 48.54C22.695 48.4833 23.7433 48.455 24.99 48.455C30.43 48.455 34.7933 49.73 38.08 52.28C41.31 54.7733 42.925 57.8333 42.925 61.46C42.925 61.5167 42.925 61.5733 42.925 61.63C42.8683 62.2533 42.84 62.735 42.84 63.075L42.84 63.16C42.84 63.2167 42.84 63.2733 42.84 63.33C43.01 62.9333 43.095 61.9417 43.095 60.355C43.095 58.3717 42.5 56.5017 41.31 54.745C40.8 53.9517 39.7233 52.8467 38.08 51.43C37.91 51.3167 37.7683 51.175 37.655 51.005C37.7683 51.0617 37.8533 51.1183 37.91 51.175C39.3833 52.4217 40.1483 53.045 40.205 53.045C40.4317 53.045 40.545 52.8183 40.545 52.365C40.545 51.9683 40.2333 51.6283 39.61 51.345L34.68 49.305C34.3967 49.1917 34 49.135 33.49 49.135C33.32 49.135 33.235 49.1633 33.235 49.22C33.2917 48.9367 32.3567 48.6533 30.43 48.37C30.6 48.37 30.77 48.37 30.94 48.37C31.6767 48.37 32.9233 48.625 34.68 49.135C36.4933 49.8717 38.3067 50.6083 40.12 51.345C40.97 51.685 41.7917 51.855 42.585 51.855C43.3783 51.855 44.1433 51.7417 44.88 51.515C45.4467 51.6283 46.24 52.3933 47.26 53.81C47.94 54.7167 48.5067 55.68 48.96 56.7C49.5833 58.1167 49.895 59.8733 49.895 61.97C49.895 67.58 46.835 71.8583 40.715 74.805L40.63 74.89C40.97 75.0033 41.2817 75.1167 41.565 75.23C41.7917 75.3433 41.9617 75.4283 42.075 75.485C42.3583 75.5983 42.67 75.7117 43.01 75.825L43.01 75.91L41.735 76.335L41.65 76.335C41.4233 76.335 41.2533 76.2217 41.14 75.995C41.0267 75.7117 40.9417 75.57 40.885 75.57C40.545 75.57 40.375 75.6267 40.375 75.74C40.375 75.8533 40.5167 76.1367 40.8 76.59L39.865 76.59C39.9783 76.76 40.12 76.93 40.29 77.1C40.8567 77.6667 41.1967 78.0633 41.31 78.29L41.225 78.29C41.1117 78.29 40.8567 78.2333 40.46 78.12L41.31 78.97C40.8567 78.7433 40.0067 78.1483 38.76 77.185L38.59 77.1L39.015 77.695C39.4117 78.0917 39.8083 78.4883 40.205 78.885C41.1117 79.6217 41.7917 80.1883 42.245 80.585C43.2083 81.435 44.0017 82.3133 44.625 83.22C45.8717 84.9767 46.6083 87.385 46.835 90.445C46.8917 90.0483 46.92 89.6233 46.92 89.17C46.92 88.3767 46.8633 87.6117 46.75 86.875C46.0133 84.4383 45.645 83.0783 45.645 82.795C45.645 81.5483 46.6933 80.3867 48.79 79.31L48.96 79.225C49.0167 79.225 49.5267 79.735 50.49 80.755C50.7167 80.9817 50.9433 81.265 51.17 81.605C51.85 82.5683 52.4167 83.6167 52.87 84.75C53.38 85.9967 53.635 87.6117 53.635 89.595C53.635 94.4117 51.68 98.1517 47.77 100.815C45.5033 102.345 43.1517 103.45 40.715 104.13C36.3517 105.32 32.4983 105.915 29.155 105.915L0.850001 105.915L0.850001 105.065L7.565 100.9L7.565 51.6L0.85 47.35ZM21.845 48.03L22.015 47.86C22.1283 47.7467 22.8083 47.69 24.055 47.69C24.225 47.69 24.8483 47.69 25.925 47.69C26.4917 47.69 27.0867 47.69 27.71 47.69L27.455 47.945L28.39 48.115L21.93 48.115L21.845 48.03ZM14.875 50.24C14.9317 50.1267 15.2717 49.9567 15.895 49.73C16.0083 49.6733 16.0933 49.6167 16.15 49.56L16.15 49.815C16.15 50.155 15.81 50.325 15.13 50.325C14.96 50.325 14.875 50.2967 14.875 50.24ZM13.6 50.155C13.8833 50.0417 14.025 49.9283 14.025 49.815L14.96 49.815C14.79 50.0417 14.3933 50.155 13.77 50.155C13.7133 50.155 13.6567 50.155 13.6 50.155ZM18.02 74.89C18.02 74.9467 18.0483 75.0317 18.105 75.145C18.955 75.2017 19.55 75.23 19.89 75.23C20.1733 75.23 20.6833 75.1733 21.42 75.06L28.985 75.06C29.2117 75.06 30.515 74.9467 32.895 74.72C33.4617 74.6633 33.745 74.5783 33.745 74.465L30.77 74.465L30.685 74.38L31.79 73.785C32.4133 73.445 33.0083 72.34 33.575 70.47C35.6717 68.3167 36.72 66.05 36.72 63.67L36.72 60.27C36.72 55.2267 34.0283 52.1667 28.645 51.09C27.5683 50.8633 26.4633 50.75 25.33 50.75C23.63 50.75 21.9583 50.75 20.315 50.75L20.315 72.34C20.315 72.85 19.5783 73.6717 18.105 74.805L18.02 74.89ZM38.08 71.405L38.08 71.49C38.8733 70.7533 39.3267 70.215 39.44 69.875L39.355 69.875L38.08 71.405ZM35.445 73.955L35.53 73.955C35.7 73.955 36.0967 73.6717 36.72 73.105C37.57 72.3117 37.995 71.83 37.995 71.66L37.995 71.575C37.2583 72.255 36.465 72.9917 35.615 73.785C35.5583 73.8417 35.5017 73.8983 35.445 73.955ZM20.315 101.07C19.6917 101.863 19.3233 102.43 19.21 102.77C19.04 103.337 18.6717 103.62 18.105 103.62C18.105 103.733 18.785 103.847 20.145 103.96C20.7117 104.017 22.0433 104.045 24.14 104.045C27.5967 104.045 30.4017 103.875 32.555 103.535C35.615 103.025 37.825 102.232 39.185 101.155L39.1 101.155L39.015 101.155C37.315 101.778 36.3233 102.09 36.04 102.09C35.9267 102.09 35.8417 102.09 35.785 102.09C36.2383 101.693 36.635 101.013 36.975 100.05C37.0317 99.9367 37.145 99.3983 37.315 98.435C37.315 98.3217 37.3433 98.2083 37.4 98.095C39.44 95.9983 40.46 93.7033 40.46 91.21L40.46 87.895C40.46 83.5883 38.1933 80.5 33.66 78.63C32.1867 78.0067 30.43 77.61 28.39 77.44C24.7633 77.3833 22.0717 77.355 20.315 77.355L20.315 101.07ZM40.205 77.95C40.1483 77.8933 39.865 77.695 39.355 77.355C39.525 77.5817 39.8083 77.78 40.205 77.95ZM13.6 95.035C13.7133 92.4283 13.7133 89.8217 13.6 87.215C13.4867 89.8217 13.4867 92.4283 13.6 95.035ZM13.685 96.99C13.7983 96.5367 13.7983 96.0833 13.685 95.63C13.5717 96.0833 13.5717 96.5367 13.685 96.99ZM3.825 104.215C3.485 104.385 3.28667 104.498 3.23 104.555C3.28667 104.555 3.37167 104.555 3.485 104.555C4.22167 104.555 5.1 104.357 6.12 103.96C6.06333 103.96 6.00667 103.96 5.95 103.96C5.66667 103.96 4.95833 104.045 3.825 104.215ZM72.9572 48.965C73.9772 48.965 75.1106 48.8233 76.3572 48.54C77.7739 48.1433 78.8506 47.86 79.5872 47.69C81.2872 47.2933 82.9589 47.01 84.6022 46.84C85.6789 46.7833 86.5006 46.7267 87.0672 46.67C87.3506 46.67 87.4922 46.6417 87.4922 46.585L87.4922 46.415C87.6056 46.415 87.9456 46.4433 88.5122 46.5C88.9656 46.5567 89.2772 46.585 89.4472 46.585C89.8439 46.5283 90.1272 46.4717 90.2972 46.415L90.3822 46.415L90.4672 46.415L90.3822 46.585L90.7222 46.67C92.9889 46.7267 95.4822 47.095 98.2022 47.775L97.8622 47.775C96.2756 47.435 95.1989 47.265 94.6322 47.265C94.5189 47.265 94.4056 47.265 94.2922 47.265C94.3489 47.3217 94.4906 47.4067 94.7172 47.52L94.5472 47.52L90.3822 46.755L90.3822 46.925C90.0422 46.8683 89.7022 46.84 89.3622 46.84C78.0289 47.18 70.3222 52.875 66.2422 63.925C64.9389 67.495 64.2872 71.6033 64.2872 76.25C64.2872 79.48 64.5706 82.1433 65.1372 84.24C65.1372 84.1833 65.1372 84.1267 65.1372 84.07L65.1372 83.985C64.6839 80.925 64.4572 78.29 64.4572 76.08C64.4572 75.23 64.4572 74.38 64.4572 73.53C64.7972 69.45 65.6189 65.8233 66.9222 62.65C71.1722 52.45 78.5389 47.35 89.0222 47.35C99.8456 47.35 107.269 52.45 111.292 62.65C112.936 66.8433 113.757 71.2633 113.757 75.91C113.757 76.9867 113.701 78.545 113.587 80.585C113.587 80.6417 113.587 80.755 113.587 80.925C113.587 81.0383 113.587 81.1517 113.587 81.265C113.814 79.8483 113.927 78.12 113.927 76.08C113.927 65.88 110.612 57.89 103.982 52.11C103.926 52.0533 103.869 51.9967 103.812 51.94C104.039 52.0533 104.237 52.1383 104.407 52.195C104.351 52.1383 104.322 52.0817 104.322 52.025C104.379 51.855 104.521 51.77 104.747 51.77C104.577 50.6933 103.472 49.73 101.432 48.88C101.376 48.88 101.319 48.8517 101.262 48.795L101.347 48.795C104.521 50.0983 107.071 51.005 108.997 51.515C109.111 51.5717 109.196 51.6 109.252 51.6C109.592 51.77 110.216 52.3083 111.122 53.215C111.859 53.9517 112.454 54.575 112.907 55.085C113.474 55.765 114.069 56.53 114.692 57.38C116.052 59.25 117.186 61.46 118.092 64.01C119.396 67.6367 120.047 71.66 120.047 76.08C120.047 80.5567 119.367 84.6933 118.007 88.49C114.777 97.5 108.544 103.252 99.3072 105.745C95.9639 106.652 92.5639 107.105 89.1072 107.105C85.5939 107.105 82.2789 106.68 79.1622 105.83C69.7556 103.28 63.4089 97.4433 60.1222 88.32C58.8189 84.6933 58.1672 80.6133 58.1672 76.08C58.1672 65.9367 61.5389 57.9467 68.2822 52.11C70.0956 50.5233 71.6539 49.475 72.9572 48.965ZM100.242 48.455L98.3722 47.86L98.5422 47.86L100.412 48.455L100.242 48.455ZM75.3372 50.58C75.3372 50.75 75.3939 50.835 75.5072 50.835C75.6206 50.835 75.7339 50.8067 75.8472 50.75C78.1139 49.5033 79.8989 48.625 81.2022 48.115C81.3156 48.0583 81.4289 48.0017 81.5422 47.945C81.4856 47.945 81.4006 47.945 81.2872 47.945C80.7772 47.945 79.5022 48.3133 77.4622 49.05C76.0456 49.56 75.3372 50.07 75.3372 50.58ZM101.092 48.71C100.979 48.71 100.809 48.6533 100.582 48.54L100.667 48.54C100.781 48.54 100.922 48.5967 101.092 48.71ZM71.3422 75.825C71.3422 82.9083 72.7306 89.0283 75.5072 94.185C75.6772 94.4683 75.8189 95.0917 75.9322 96.055C76.1022 97.415 76.5839 98.7183 77.3772 99.965C77.7739 100.645 78.5389 101.438 79.6722 102.345C79.7289 102.345 79.7572 102.373 79.7572 102.43L79.1622 102.43C78.9922 102.43 78.3406 102.118 77.2072 101.495C75.2806 100.418 73.4389 98.9733 71.6822 97.16C76.3289 102.373 82.1656 104.98 89.1922 104.98C92.3656 104.98 95.3406 104.413 98.1172 103.28L98.2022 103.28C99.5056 103.28 100.667 102.628 101.687 101.325L101.602 101.325C99.3922 102.628 97.7489 103.28 96.6722 103.28L96.5872 103.28L98.2022 101.41C98.3722 101.183 98.7972 100.192 99.4772 98.435C99.4772 98.3783 99.5056 98.3217 99.5622 98.265C102.736 94.8083 104.889 90.5017 106.022 85.345C106.589 82.625 106.872 79.4517 106.872 75.825C106.872 71.4617 106.334 67.495 105.257 63.925C104.407 61.1483 103.274 58.7683 101.857 56.785C98.5139 52.1383 94.2639 49.815 89.1072 49.815C83.8939 49.815 79.7006 52.0533 76.5272 56.53C74.4872 59.42 73.0989 62.5933 72.3622 66.05C71.6822 69.28 71.3422 72.5383 71.3422 75.825ZM83.4972 75.995C85.8772 72.255 87.6906 68.345 88.9372 64.265L88.9372 64.35L88.9372 64.52C88.8239 64.9167 88.7389 65.2 88.6822 65.37L88.6822 65.625C88.6822 66.4183 88.7672 66.9567 88.9372 67.24C88.9372 67.5233 88.9372 67.7783 88.9372 68.005C88.9372 68.515 88.9372 68.7983 88.9372 68.855C88.8806 69.0817 88.8522 69.2517 88.8522 69.365C88.8522 69.4217 88.8522 69.5633 88.8522 69.79C88.8522 69.96 88.9089 70.385 89.0222 71.065L89.0222 71.235L89.0222 71.405C88.9089 72.0283 88.8239 72.4817 88.7672 72.765L88.7672 72.935C88.7672 74.5217 88.9089 75.7117 89.1922 76.505C89.3056 76.4483 89.3622 76.2783 89.3622 75.995C89.3056 74.295 89.3906 73.0767 89.6172 72.34L89.6172 72.255C89.3906 71.235 89.2772 70.6967 89.2772 70.64C89.2772 70.13 89.3906 69.7617 89.6172 69.535L89.1922 67.58L89.1922 67.495C89.1922 66.645 89.3056 65.8517 89.5322 65.115C90.3256 67.6083 91.2889 69.9317 92.4222 72.085C93.3856 73.785 94.1222 75.06 94.6322 75.91C94.6889 76.0233 94.7172 76.1083 94.7172 76.165L94.7172 76.25C92.2239 80.2167 90.3539 84.325 89.1072 88.575C88.0306 84.9483 86.1889 80.8967 83.5822 76.42C83.5256 76.3067 83.4972 76.1933 83.4972 76.08L83.4972 75.995ZM113.502 81.945C113.616 81.7183 113.616 81.52 113.502 81.35C113.389 81.52 113.389 81.7183 113.502 81.945ZM140.111 48.965C141.131 48.965 142.264 48.8233 143.511 48.54C144.927 48.1433 146.004 47.86 146.741 47.69C148.441 47.2933 150.112 47.01 151.756 46.84C152.832 46.7833 153.654 46.7267 154.221 46.67C154.504 46.67 154.646 46.6417 154.646 46.585L154.646 46.415C154.759 46.415 155.099 46.4433 155.666 46.5C156.119 46.5567 156.431 46.585 156.601 46.585C156.997 46.5283 157.281 46.4717 157.451 46.415L157.536 46.415L157.621 46.415L157.536 46.585L157.876 46.67C160.142 46.7267 162.636 47.095 165.356 47.775L165.016 47.775C163.429 47.435 162.352 47.265 161.786 47.265C161.672 47.265 161.559 47.265 161.446 47.265C161.502 47.3217 161.644 47.4067 161.871 47.52L161.701 47.52L157.536 46.755L157.536 46.925C157.196 46.8683 156.856 46.84 156.516 46.84C145.182 47.18 137.476 52.875 133.396 63.925C132.092 67.495 131.441 71.6033 131.441 76.25C131.441 79.48 131.724 82.1433 132.291 84.24C132.291 84.1833 132.291 84.1267 132.291 84.07L132.291 83.985C131.837 80.925 131.611 78.29 131.611 76.08C131.611 75.23 131.611 74.38 131.611 73.53C131.951 69.45 132.772 65.8233 134.076 62.65C138.326 52.45 145.692 47.35 156.176 47.35C166.999 47.35 174.422 52.45 178.446 62.65C180.089 66.8433 180.911 71.2633 180.911 75.91C180.911 76.9867 180.854 78.545 180.741 80.585C180.741 80.6417 180.741 80.755 180.741 80.925C180.741 81.0383 180.741 81.1517 180.741 81.265C180.967 79.8483 181.081 78.12 181.081 76.08C181.081 65.88 177.766 57.89 171.136 52.11C171.079 52.0533 171.022 51.9967 170.966 51.94C171.192 52.0533 171.391 52.1383 171.561 52.195C171.504 52.1383 171.476 52.0817 171.476 52.025C171.532 51.855 171.674 51.77 171.901 51.77C171.731 50.6933 170.626 49.73 168.586 48.88C168.529 48.88 168.472 48.8517 168.416 48.795L168.501 48.795C171.674 50.0983 174.224 51.005 176.151 51.515C176.264 51.5717 176.349 51.6 176.406 51.6C176.746 51.77 177.369 52.3083 178.276 53.215C179.012 53.9517 179.607 54.575 180.061 55.085C180.627 55.765 181.222 56.53 181.846 57.38C183.206 59.25 184.339 61.46 185.246 64.01C186.549 67.6367 187.201 71.66 187.201 76.08C187.201 80.5567 186.521 84.6933 185.161 88.49C181.931 97.5 175.697 103.252 166.461 105.745C163.117 106.652 159.717 107.105 156.261 107.105C152.747 107.105 149.432 106.68 146.316 105.83C136.909 103.28 130.562 97.4433 127.276 88.32C125.972 84.6933 125.321 80.6133 125.321 76.08C125.321 65.9367 128.692 57.9467 135.436 52.11C137.249 50.5233 138.807 49.475 140.111 48.965ZM167.396 48.455L165.526 47.86L165.696 47.86L167.566 48.455L167.396 48.455ZM142.491 50.58C142.491 50.75 142.547 50.835 142.661 50.835C142.774 50.835 142.887 50.8067 143.001 50.75C145.267 49.5033 147.052 48.625 148.356 48.115C148.469 48.0583 148.582 48.0017 148.696 47.945C148.639 47.945 148.554 47.945 148.441 47.945C147.931 47.945 146.656 48.3133 144.616 49.05C143.199 49.56 142.491 50.07 142.491 50.58ZM168.246 48.71C168.132 48.71 167.962 48.6533 167.736 48.54L167.821 48.54C167.934 48.54 168.076 48.5967 168.246 48.71ZM138.496 75.825C138.496 82.9083 139.884 89.0283 142.661 94.185C142.831 94.4683 142.972 95.0917 143.086 96.055C143.256 97.415 143.737 98.7183 144.531 99.965C144.927 100.645 145.692 101.438 146.826 102.345C146.882 102.345 146.911 102.373 146.911 102.43L146.316 102.43C146.146 102.43 145.494 102.118 144.361 101.495C142.434 100.418 140.592 98.9733 138.836 97.16C143.482 102.373 149.319 104.98 156.346 104.98C159.519 104.98 162.494 104.413 165.271 103.28L165.356 103.28C166.659 103.28 167.821 102.628 168.841 101.325L168.756 101.325C166.546 102.628 164.902 103.28 163.826 103.28L163.741 103.28L165.356 101.41C165.526 101.183 165.951 100.192 166.631 98.435C166.631 98.3783 166.659 98.3217 166.716 98.265C169.889 94.8083 172.042 90.5017 173.176 85.345C173.742 82.625 174.026 79.4517 174.026 75.825C174.026 71.4617 173.487 67.495 172.411 63.925C171.561 61.1483 170.427 58.7683 169.011 56.785C165.667 52.1383 161.417 49.815 156.261 49.815C151.047 49.815 146.854 52.0533 143.681 56.53C141.641 59.42 140.252 62.5933 139.516 66.05C138.836 69.28 138.496 72.5383 138.496 75.825ZM150.651 75.995C153.031 72.255 154.844 68.345 156.091 64.265L156.091 64.35L156.091 64.52C155.977 64.9167 155.892 65.2 155.836 65.37L155.836 65.625C155.836 66.4183 155.921 66.9567 156.091 67.24C156.091 67.5233 156.091 67.7783 156.091 68.005C156.091 68.515 156.091 68.7983 156.091 68.855C156.034 69.0817 156.006 69.2517 156.006 69.365C156.006 69.4217 156.006 69.5633 156.006 69.79C156.006 69.96 156.062 70.385 156.176 71.065L156.176 71.235L156.176 71.405C156.062 72.0283 155.977 72.4817 155.921 72.765L155.921 72.935C155.921 74.5217 156.062 75.7117 156.346 76.505C156.459 76.4483 156.516 76.2783 156.516 75.995C156.459 74.295 156.544 73.0767 156.771 72.34L156.771 72.255C156.544 71.235 156.431 70.6967 156.431 70.64C156.431 70.13 156.544 69.7617 156.771 69.535L156.346 67.58L156.346 67.495C156.346 66.645 156.459 65.8517 156.686 65.115C157.479 67.6083 158.442 69.9317 159.576 72.085C160.539 73.785 161.276 75.06 161.786 75.91C161.842 76.0233 161.871 76.1083 161.871 76.165L161.871 76.25C159.377 80.2167 157.507 84.325 156.261 88.575C155.184 84.9483 153.342 80.8967 150.736 76.42C150.679 76.3067 150.651 76.1933 150.651 76.08L150.651 75.995ZM180.656 81.945C180.769 81.7183 180.769 81.52 180.656 81.35C180.542 81.52 180.542 81.7183 180.656 81.945ZM190.434 47.35L190.434 46.5L191.539 46.5C191.256 46.67 191.114 46.84 191.114 47.01C191.114 47.0667 191.227 47.1233 191.454 47.18C193.267 47.5767 194.627 47.9167 195.534 48.2C199.331 49.2767 201.257 49.9 201.314 50.07L201.314 49.985L201.059 49.73L200.719 49.475L200.719 49.39C200.776 49.3333 200.804 49.2767 200.804 49.22C200.804 49.1067 200.747 49.0217 200.634 48.965C201.371 48.8517 201.966 48.795 202.419 48.795C203.836 48.795 204.856 48.88 205.479 49.05C205.536 49.05 205.564 49.1067 205.564 49.22L205.819 49.22C205.706 49.5033 205.394 49.73 204.884 49.9L205.139 49.9C204.799 50.0133 204.629 50.155 204.629 50.325C204.516 50.2683 204.431 50.24 204.374 50.24C204.317 50.24 204.147 50.3533 203.864 50.58L203.949 50.665C203.382 50.7217 203.042 50.75 202.929 50.75C202.872 50.75 202.787 50.6933 202.674 50.58C202.334 50.2967 201.909 50.0417 201.399 49.815C201.456 49.8717 201.569 49.9567 201.739 50.07L201.654 50.155C201.711 50.155 201.937 50.2967 202.334 50.58C202.447 50.6933 202.589 50.7783 202.759 50.835C202.872 51.4583 202.957 52.0533 203.014 52.62C203.127 58.91 203.212 65.2 203.269 71.49C203.326 80.0467 203.326 88.6317 203.269 97.245L203.354 98.86C203.354 97.2733 203.354 95.715 203.354 94.185C203.411 88.6317 203.439 84.4667 203.439 81.69C203.439 81.0667 203.439 79.1683 203.439 75.995C203.439 72.765 203.439 70.8383 203.439 70.215C203.382 64.3217 203.354 59.93 203.354 57.04C203.354 56.7 203.354 56.0483 203.354 55.085C203.354 53.9517 203.382 53.1583 203.439 52.705C203.609 51.4017 203.921 50.6083 204.374 50.325C204.374 50.4383 204.402 50.495 204.459 50.495C204.742 50.495 204.969 50.4383 205.139 50.325C205.479 50.0983 205.677 49.985 205.734 49.985L213.724 47.69C215.424 47.4633 216.416 47.1517 216.699 46.755C216.699 46.8117 216.699 46.8967 216.699 47.01C216.699 47.2367 216.642 47.3783 216.529 47.435L209.984 51.6L209.984 100.815C209.984 101.665 209.247 102.572 207.774 103.535C207.717 103.535 207.689 103.563 207.689 103.62L207.859 103.79C207.916 103.847 208.454 103.932 209.474 104.045C210.494 104.158 211.542 104.215 212.619 104.215C214.036 104.215 215.481 104.215 216.954 104.215C219.504 104.215 220.949 104.215 221.289 104.215C222.932 104.215 224.207 104.13 225.114 103.96C224.717 103.847 224.519 103.762 224.519 103.705C224.519 103.648 224.547 103.592 224.604 103.535C225.397 102.798 225.851 101.807 225.964 100.56L232.424 90.36C232.481 90.2467 232.651 90.19 232.934 90.19C233.047 90.19 233.104 90.2183 233.104 90.275L232.594 91.38L230.214 98.775L229.619 100.22L228.174 102.26L228.174 102.345C228.571 102.232 229.109 101.552 229.789 100.305C230.186 99.5117 230.441 98.9733 230.554 98.69L233.529 90.275C233.699 90.0483 233.869 89.7083 234.039 89.255L234.039 89.935L232.424 105.915L190.434 105.915L190.434 105.065L197.149 100.9L197.149 51.6L190.434 47.35ZM192.814 104.555L192.899 104.555C193.182 104.555 193.466 104.527 193.749 104.47C195.392 104.13 196.214 103.875 196.214 103.705C194.401 103.705 193.267 103.988 192.814 104.555ZM225.709 103.875C225.539 103.762 225.369 103.762 225.199 103.875C225.369 103.988 225.539 103.988 225.709 103.875ZM269.562 46.5C269.959 46.5 270.356 46.4433 270.752 46.33C270.752 46.4433 270.724 46.5283 270.667 46.585C271.007 46.6983 272.452 46.8117 275.002 46.925C277.382 47.3783 279.706 48.0017 281.972 48.795C283.219 49.1917 283.984 49.5883 284.267 49.985C284.891 50.7783 285.259 51.175 285.372 51.175C285.712 51.175 286.222 50.8067 286.902 50.07L286.987 50.07C287.441 50.07 287.696 50.2117 287.752 50.495L289.282 66.135L288.432 66.135L282.142 56.275C279.422 52.025 275.371 49.9 269.987 49.9C264.661 49.9 260.326 52.28 256.982 57.04C255.736 58.7967 254.772 60.6383 254.092 62.565C252.619 66.645 251.882 71.0367 251.882 75.74C251.882 82.9933 253.271 89.255 256.047 94.525C256.444 95.2617 256.642 95.6583 256.642 95.715C256.926 97.4717 257.209 98.6617 257.492 99.285C258.002 100.362 258.966 101.58 260.382 102.94L260.382 103.025C258.059 102.345 255.622 100.787 253.072 98.35C257.209 102.827 262.026 105.065 267.522 105.065C269.846 105.065 271.942 104.697 273.812 103.96C275.682 103.223 276.759 102.657 277.042 102.26C276.929 102.26 276.702 102.345 276.362 102.515C275.739 102.855 275.286 103.082 275.002 103.195C273.869 103.648 273.246 103.847 273.132 103.79L272.792 103.62C273.642 102.827 274.294 101.807 274.747 100.56L275.087 99.625C278.261 96.3383 279.847 91.9183 279.847 86.365C279.847 84.495 279.819 83.0217 279.762 81.945C279.649 80.245 279.451 79.2533 279.167 78.97L279.082 78.885L274.492 85.43C273.416 86.96 272.452 88.9717 271.602 91.465L271.517 91.55C270.611 88.83 269.704 86.6767 268.797 85.09C267.041 81.9167 264.604 79.4517 261.487 77.695C261.601 77.525 261.742 77.3833 261.912 77.27C264.576 74.89 266.616 72.7367 268.032 70.81C269.279 69.11 270.299 67.1833 271.092 65.03C271.092 65.1433 271.121 65.2567 271.177 65.37C271.291 65.6533 271.347 65.8233 271.347 65.88C271.347 65.9933 271.347 66.0783 271.347 66.135C271.291 66.5317 271.234 66.815 271.177 66.985L271.177 67.155L271.177 67.24C271.234 67.2967 271.262 67.3533 271.262 67.41C271.376 67.8633 271.432 68.2033 271.432 68.43C271.432 68.4867 271.347 68.94 271.177 69.79L271.177 69.875C271.347 70.555 271.432 71.0367 271.432 71.32C271.376 71.9433 271.319 72.425 271.262 72.765L271.262 72.935L271.262 73.02C271.376 73.36 271.432 73.615 271.432 73.785L271.432 74.04C271.432 74.1533 271.432 74.2383 271.432 74.295C271.376 74.5783 271.347 74.7767 271.347 74.89C271.347 74.9467 271.347 75.0317 271.347 75.145L271.347 75.315C271.461 75.995 271.517 76.3633 271.517 76.42C271.574 76.4767 271.659 76.6183 271.772 76.845C272.736 76.3917 273.274 76.08 273.387 75.91C273.387 75.8533 273.359 75.825 273.302 75.825C272.622 75.5417 272.282 75.2017 272.282 74.805C272.282 74.6917 272.311 74.465 272.367 74.125L271.857 71.405L271.857 71.32C271.857 70.98 271.942 70.5833 272.112 70.13L272.112 70.045L271.687 68.345L271.687 68.26C271.687 68.2033 271.801 67.8917 272.027 67.325L272.027 67.24L272.027 67.155C271.914 66.645 271.829 66.2483 271.772 65.965L271.772 65.88C271.772 65.7667 271.886 65.5967 272.112 65.37C272.792 67.0133 273.897 69.025 275.427 71.405C275.654 71.8017 275.937 72.2833 276.277 72.85C276.561 73.36 276.816 73.7 277.042 73.87C277.609 73.87 277.949 73.9267 278.062 74.04L281.887 77.525C282.284 78.0917 282.624 78.4883 282.907 78.715L289.112 84.24C289.736 84.8067 290.246 85.0617 290.642 85.005C291.662 85.9117 292.314 86.5067 292.597 86.79C292.597 87.13 292.597 87.4417 292.597 87.725C292.597 92.0317 290.529 96.14 286.392 100.05C284.692 101.693 282.312 103.223 279.252 104.64C275.682 106.34 271.801 107.19 267.607 107.19C255.367 107.19 246.726 101.75 241.682 90.87C239.699 86.5633 238.707 81.7183 238.707 76.335C238.707 66.8717 241.739 59.165 247.802 53.215C250.012 51.0617 251.967 49.645 253.667 48.965C255.424 48.795 256.614 48.625 257.237 48.455C260.807 47.605 264.066 47.0383 267.012 46.755C267.182 46.8117 267.324 46.7833 267.437 46.67C267.437 46.5567 267.466 46.4717 267.522 46.415L267.692 46.415C267.749 46.415 267.806 46.415 267.862 46.415C268.486 46.4717 268.939 46.5 269.222 46.5C269.279 46.5 269.392 46.5 269.562 46.5ZM244.912 75.91C244.912 78.63 245.167 81.4067 245.677 84.24C245.791 84.6933 245.904 85.09 246.017 85.43L246.017 85.345L246.017 85.26C245.337 82.03 244.997 78.9133 244.997 75.91C244.997 72.3967 245.451 69.1383 246.357 66.135C248.794 58.0883 253.441 52.4783 260.297 49.305C260.411 49.305 260.496 49.2767 260.552 49.22C263.782 47.9733 266.984 47.35 270.157 47.35C270.441 47.35 270.724 47.35 271.007 47.35C274.011 47.5767 276.532 48.1717 278.572 49.135C280.046 49.815 281.264 50.495 282.227 51.175C282.964 51.685 283.729 52.4783 284.522 53.555C284.522 53.6117 284.551 53.64 284.607 53.64L284.607 53.555C284.607 52.8183 284.522 52.3933 284.352 52.28L282.227 50.75L282.057 50.58C282.454 50.8067 282.766 50.92 282.992 50.92C283.106 50.92 283.304 50.8633 283.587 50.75C283.587 50.6933 283.672 50.5517 283.842 50.325L283.842 50.24C283.842 49.73 283.049 49.22 281.462 48.71C280.102 48.2567 279.281 48.0017 278.997 47.945C276.787 47.3783 275.484 47.095 275.087 47.095L273.727 47.095L273.812 47.18C274.492 47.35 274.917 47.4633 275.087 47.52L274.832 47.52L271.262 46.925C271.149 46.925 270.866 46.925 270.412 46.925C261.969 46.925 255.282 50.3533 250.352 57.21C246.726 62.31 244.912 68.5433 244.912 75.91ZM255.962 50.58L255.962 50.665C256.076 50.835 256.132 50.9483 256.132 51.005C256.416 50.8917 256.699 50.75 256.982 50.58C259.419 49.22 261.176 48.37 262.252 48.03C262.252 47.9733 262.139 47.945 261.912 47.945C259.249 47.945 257.266 48.8233 255.962 50.58ZM283.247 83.135C283.361 83.475 283.474 83.815 283.587 84.155C284.211 85.855 284.721 87.3567 285.117 88.66C285.174 89 285.259 89.7933 285.372 91.04C285.712 89.9067 285.882 89.1133 285.882 88.66L285.882 88.575C285.542 87.9517 285.344 87.4133 285.287 86.96C284.664 85.43 284.012 83.9283 283.332 82.455C282.652 81.0383 282.114 80.0183 281.717 79.395C280.414 77.9217 279.592 77.0717 279.252 76.845C279.309 76.9583 279.649 77.3267 280.272 77.95C280.612 78.29 280.811 78.5167 280.867 78.63L283.247 83.135ZM303.079 101.495L304.354 100.985C304.41 100.928 304.495 100.787 304.609 100.56L324.584 47.095C324.64 47.3217 324.697 47.7183 324.754 48.285C324.81 50.8917 324.839 53.5267 324.839 56.19C324.839 57.8333 324.839 59.0517 324.839 59.845C324.839 61.6017 325.207 62.395 325.944 62.225L325.859 62.31C325.915 62.4233 326.029 62.48 326.199 62.48C326.369 62.48 326.454 62.4517 326.454 62.395C326.454 62.2817 326.34 62.1967 326.114 62.14C326.68 62.0833 327.049 61.4883 327.219 60.355C327.219 59.845 327.219 59.3067 327.219 58.74C327.219 57.0967 327.105 55.4817 326.879 53.895C326.595 51.9683 326.454 50.4667 326.454 49.39C326.454 48.88 326.454 48.3417 326.454 47.775L351.104 100.9C351.104 100.957 351.387 101.155 351.954 101.495L351.954 101.58C351.954 102.203 351.5 102.827 350.594 103.45C350.65 103.507 350.934 103.62 351.444 103.79C352.747 104.13 353.852 104.413 354.759 104.64C355.722 104.867 356.289 104.98 356.459 104.98L356.374 104.895L356.544 104.725L356.289 104.215C357.252 104.782 357.734 105.093 357.734 105.15L357.734 105.915L330.449 105.915L330.449 105.15C330.449 104.98 330.845 104.725 331.639 104.385C331.639 104.498 331.582 104.697 331.469 104.98L331.639 105.15C331.922 105.037 332.234 104.952 332.574 104.895C333.594 104.668 334.642 104.385 335.719 104.045C336.965 103.648 337.589 103.422 337.589 103.365L337.589 103.28L337.164 103.28L337.164 102.77C336.37 102.373 335.889 102.062 335.719 101.835C336.569 101.325 336.994 100.985 336.994 100.815L336.994 100.73L321.524 67.495L308.944 101.155L309.454 101.41C308.604 102.26 307.782 102.685 306.989 102.685C306.649 102.685 306.479 102.572 306.479 102.345L306.479 102.175C306.592 101.665 306.677 101.297 306.734 101.07L306.734 100.9L306.734 100.815L306.054 102.77L306.054 103.28C306.337 103.28 306.592 103.308 306.819 103.365L314.809 105.065C315.205 105.122 315.602 105.178 315.999 105.235C316.169 105.292 316.282 105.32 316.339 105.32L316.509 105.32C316.565 105.32 316.792 105.263 317.189 105.15L317.274 105.15L317.274 105.915L293.559 105.915L293.559 105.15C293.559 105.093 294.21 104.838 295.514 104.385C295.57 104.555 295.74 104.697 296.024 104.81C295.967 104.867 295.769 104.98 295.429 105.15L295.684 105.15L304.354 103.62L304.609 103.535C304.552 103.535 304.495 103.535 304.439 103.535L304.269 103.535C303.985 103.592 303.759 103.62 303.589 103.62L303.419 103.62L303.334 103.62C303.277 103.563 303.22 103.535 303.164 103.535C302.994 103.478 302.824 103.45 302.654 103.45C302.71 103.393 302.909 103.252 303.249 103.025L303.249 102.94L303.249 102.855C303.079 102.402 302.994 102.09 302.994 101.92C302.994 101.75 302.994 101.637 302.994 101.58L303.079 101.495ZM323.904 62.65C323.904 62.7067 323.932 62.735 323.989 62.735C324.499 62.735 324.754 62.5933 324.754 62.31L323.904 62.65ZM341.584 95.375L341.584 95.29C341.244 94.44 341.045 93.93 340.989 93.76L328.749 66.73C328.522 66.1633 328.069 65.37 327.389 64.35C326.765 63.3867 326.255 62.8483 325.859 62.735C326.482 63.1883 327.049 63.9533 327.559 65.03L341.584 95.375ZM317.104 94.78C317.104 94.7233 317.132 94.6383 317.189 94.525C319.739 90.2183 321.552 86.28 322.629 82.71L322.629 82.795L322.629 82.965C322.459 83.815 322.374 84.325 322.374 84.495C322.374 85.175 322.43 85.6 322.544 85.77C322.6 86.3933 322.629 86.875 322.629 87.215L322.629 87.47C322.515 87.9233 322.459 88.2633 322.459 88.49L322.459 88.66C322.459 88.7733 322.459 88.8583 322.459 88.915C322.515 89.595 322.572 90.105 322.629 90.445L322.629 90.615L322.629 90.785C322.515 91.1817 322.459 91.4933 322.459 91.72C322.459 91.7767 322.459 91.8617 322.459 91.975C322.459 93.675 322.544 94.78 322.714 95.29L322.799 95.29C322.912 95.29 322.969 94.865 322.969 94.015C322.969 93.9017 322.969 93.8167 322.969 93.76C322.912 93.5333 322.884 93.3633 322.884 93.25L322.884 93.08C322.884 92.6833 322.969 92.23 323.139 91.72C323.139 91.4933 323.054 90.785 322.884 89.595L322.884 89.425C322.884 89.3683 322.997 89 323.224 88.32L323.224 88.235L323.224 88.065L322.799 86.28L322.799 86.195C322.799 86.0817 322.855 85.8833 322.969 85.6L323.139 83.645C323.932 86.195 324.952 88.6317 326.199 90.955C327.162 92.5983 327.87 93.8167 328.324 94.61C328.38 94.6667 328.409 94.7233 328.409 94.78C325.859 98.86 323.989 102.94 322.799 107.02L322.714 107.105C321.75 103.762 320.617 100.928 319.314 98.605C318.407 97.075 317.727 95.9133 317.274 95.12L317.104 94.78ZM356.784 47.265L356.784 46.5L357.804 46.5C357.577 46.67 357.464 46.8117 357.464 46.925C357.464 47.0383 357.605 47.1233 357.889 47.18L367.409 49.73L367.579 49.73C367.805 49.73 367.975 49.7017 368.089 49.645L367.324 49.22L367.324 49.135C367.38 49.0217 367.409 48.9367 367.409 48.88C367.409 48.7667 367.352 48.6817 367.239 48.625C370.185 48.115 373.217 47.86 376.334 47.86C377.184 47.86 377.694 47.86 377.864 47.86L378.204 48.03L376.589 48.03C376.532 48.1433 376.447 48.2 376.334 48.2C375.37 48.4267 374.832 48.5683 374.719 48.625C374.832 48.625 374.945 48.625 375.059 48.625C375.512 48.625 376.192 48.5683 377.099 48.455L385.004 48.455C387.667 48.455 390.472 49.0783 393.419 50.325C399.085 52.705 401.919 56.7567 401.919 62.48C401.919 62.7067 401.805 63.67 401.579 65.37L401.579 65.54C401.579 65.5967 401.579 65.6533 401.579 65.71C401.975 64.7467 402.174 63.3583 402.174 61.545C402.174 57.975 400.814 54.9433 398.094 52.45C398.434 52.7333 398.66 52.875 398.774 52.875C399.057 52.875 399.199 52.705 399.199 52.365C399.199 52.025 398.972 51.7417 398.519 51.515C397.612 51.0617 396.705 50.6367 395.799 50.24C394.042 49.5033 392.739 49.1633 391.889 49.22C389.849 48.5967 388.205 48.2567 386.959 48.2C385.485 48.1433 384.749 48.0867 384.749 48.03L379.734 48.03C379.507 47.9167 379.082 47.8317 378.459 47.775L378.459 47.69C378.459 47.6333 378.544 47.605 378.714 47.605C379.847 47.5483 380.527 47.52 380.754 47.52C380.924 47.52 382.794 47.605 386.364 47.775C386.307 47.8317 386.222 47.8883 386.109 47.945C387.639 48.0583 389.792 48.3983 392.569 48.965C393.022 49.0783 393.447 49.22 393.844 49.39C396.167 50.3533 397.895 51.0617 399.029 51.515C400.049 51.9117 400.984 52.11 401.834 52.11C402.117 52.11 402.712 51.9967 403.619 51.77L403.789 51.77C404.129 51.77 404.809 52.3933 405.829 53.64C406.282 54.15 406.65 54.66 406.934 55.17C407.33 55.7933 407.755 56.7 408.209 57.89C408.775 59.3633 409.059 61.205 409.059 63.415C409.059 69.5917 406.027 74.0967 399.964 76.93L398.689 77.525C398.689 77.5817 398.717 77.6667 398.774 77.78L408.209 101.325C408.209 101.382 408.265 101.438 408.379 101.495L408.719 101.75C408.719 102.033 408.549 102.628 408.209 103.535L407.529 103.535C407.529 103.705 408.974 104.102 411.864 104.725C413.394 105.065 414.215 105.235 414.329 105.235L413.989 104.64L413.989 104.555C414.669 104.838 415.009 105.037 415.009 105.15L415.009 105.915L396.309 105.915L386.364 81.095L386.279 81.095C386.222 81.095 385.939 81.69 385.429 82.88C385.202 83.4467 384.975 84.0417 384.749 84.665C384.409 85.7417 384.069 86.8183 383.729 87.895L383.644 87.98C382.51 84.41 380.669 80.415 378.119 75.995C378.062 75.8817 378.034 75.7967 378.034 75.74C378.034 75.6833 378.119 75.5133 378.289 75.23C379.195 73.6433 379.875 72.4533 380.329 71.66C380.895 70.5833 381.349 69.6483 381.689 68.855C382.255 67.4383 382.794 65.9933 383.304 64.52C383.474 65.5967 383.559 66.4467 383.559 67.07C383.559 67.24 383.559 67.3533 383.559 67.41C383.445 67.92 383.36 68.2883 383.304 68.515L383.304 68.685C383.304 68.855 383.332 68.9683 383.389 69.025C383.502 69.8183 383.559 70.3 383.559 70.47L383.559 70.64C383.502 71.2633 383.474 71.7167 383.474 72C383.474 72.0567 383.474 72.1417 383.474 72.255C383.474 72.3683 383.502 72.5383 383.559 72.765C383.785 73.615 383.927 74.38 383.984 75.06C384.154 75.7967 384.494 76.165 385.004 76.165L385.769 76.165C385.825 76.2783 385.91 76.335 386.024 76.335L386.109 76.335C386.279 76.2217 386.392 76.165 386.449 76.165L386.534 76.165C389.707 76.165 391.719 77.185 392.569 79.225L398.774 94.1L398.859 94.185L392.909 78.97C392.795 78.6867 392.739 78.1767 392.739 77.44C392.739 76.59 393.135 75.8533 393.929 75.23C395.685 73.9267 396.847 72.935 397.414 72.255L397.329 72.255L395.969 73.615C395.912 73.5583 395.855 73.53 395.799 73.53C395.742 73.53 395.685 73.5583 395.629 73.615C394.439 74.465 393.815 74.89 393.759 74.89L393.674 74.89C393.73 74.7767 393.759 74.6917 393.759 74.635C393.759 74.4083 393.475 74.295 392.909 74.295C392.285 74.295 391.407 74.465 390.274 74.805C390.557 74.8617 391.407 74.9467 392.824 75.06C392.88 75.1733 392.909 75.2867 392.909 75.4C392.909 75.6267 392.654 75.74 392.144 75.74C392.087 75.74 392.03 75.74 391.974 75.74C392.03 75.6833 392.059 75.6267 392.059 75.57C392.059 75.4567 391.917 75.4 391.634 75.4C391.407 75.4 391.152 75.4567 390.869 75.57C391.322 75.57 391.662 75.655 391.889 75.825C391.662 75.995 391.322 76.08 390.869 76.08C390.415 76.08 390.132 76.0233 390.019 75.91L390.019 75.995C389.962 75.995 389.877 75.9667 389.764 75.91C389.48 75.91 388.885 75.8533 387.979 75.74L387.809 75.74C387.695 75.74 387.61 75.74 387.554 75.74C387.27 75.7967 387.072 75.825 386.959 75.825L386.789 75.825C386.619 75.825 386.477 75.7967 386.364 75.74C386.194 75.4567 385.74 75.1733 385.004 74.89C384.89 74.8333 384.805 74.72 384.749 74.55C384.182 73.19 383.899 71.7733 383.899 70.3C383.899 69.9033 383.927 69.535 383.984 69.195C384.097 69.1383 384.154 69.0817 384.154 69.025L384.154 68.94C383.927 67.8633 383.814 67.2967 383.814 67.24C383.814 66.9567 383.87 66.7583 383.984 66.645C384.04 65.795 384.097 65.2 384.154 64.86C384.72 66.8433 385.627 69.0533 386.874 71.49C386.534 71.8867 386.364 72.3967 386.364 73.02C386.364 73.4733 386.619 74.0117 387.129 74.635L386.704 74.295C386.704 74.3517 386.675 74.4083 386.619 74.465C386.392 74.635 386.279 74.7483 386.279 74.805C386.279 74.9183 386.307 74.975 386.364 74.975C386.534 74.975 386.732 74.975 386.959 74.975C387.469 74.975 387.78 74.9467 387.894 74.89L387.809 74.805C388.092 74.805 388.347 74.7767 388.574 74.72C388.744 74.6633 388.857 74.635 388.914 74.635C388.97 74.6917 389.027 74.72 389.084 74.72C391.067 74.72 392.087 73.7567 392.144 71.83C392.144 71.3767 392.172 70.9517 392.229 70.555C394.665 68.175 395.884 65.1433 395.884 61.46C395.884 57.0967 393.815 53.9517 389.679 52.025C387.865 51.175 385.995 50.75 384.069 50.75L376.334 50.75L376.334 100.815L376.589 101.07C376.079 101.637 375.625 102.033 375.229 102.26C375.059 102.373 374.747 102.6 374.294 102.94C374.407 103.11 374.775 103.28 375.399 103.45L380.499 104.81C380.782 104.81 381.349 104.952 382.199 105.235L382.284 105.235C382.68 105.235 382.794 105.093 382.624 104.81C382.907 104.98 383.049 105.093 383.049 105.15L383.049 105.915L356.784 105.915L356.784 105.065L363.499 100.815L363.499 51.515L356.784 47.265ZM372.509 49.305L373.869 48.88C373.812 48.88 373.755 48.88 373.699 48.88C373.075 48.88 372.735 48.9367 372.679 49.05L372.509 49.305ZM367.834 49.39L368.259 49.645L368.259 49.815C368.259 49.985 368.57 50.07 369.194 50.07L369.279 50.07C369.052 49.9567 368.825 49.8717 368.599 49.815C368.825 49.4183 368.655 49.22 368.089 49.22C367.919 49.22 367.834 49.2767 367.834 49.39ZM368.939 49.645C369.052 49.8717 369.335 49.985 369.789 49.985L369.874 49.985L369.364 49.73C369.534 49.6167 369.647 49.5317 369.704 49.475C369.59 49.475 369.335 49.5317 368.939 49.645ZM370.469 50.325C370.412 50.2683 370.355 50.24 370.299 50.24C370.185 50.24 370.1 50.2683 370.044 50.325L370.299 50.325C369.845 51.175 369.619 52.705 369.619 54.915L369.619 94.61C369.675 87.0733 369.732 79.5083 369.789 71.915C369.789 66.4183 369.789 60.9217 369.789 55.425C369.675 54.0083 369.902 52.4783 370.469 50.835C370.469 50.7217 370.724 50.4383 371.234 49.985L371.149 49.985C370.582 49.985 370.355 50.0983 370.469 50.325ZM369.874 52.11C369.874 51.8833 369.902 51.7133 369.959 51.6L369.959 51.685C369.959 51.855 369.93 52.0817 369.874 52.365C369.874 52.3083 369.874 52.2233 369.874 52.11ZM386.449 75.485C386.505 75.5417 386.647 75.57 386.874 75.57C387.1 75.57 387.214 75.5133 387.214 75.4L386.534 75.4L386.449 75.485ZM369.534 98.01C369.647 97.2167 369.647 96.4517 369.534 95.715C369.42 96.4517 369.42 97.2167 369.534 98.01ZM359.504 104.385C359.56 104.385 359.617 104.385 359.674 104.385C359.787 104.385 359.9 104.357 360.014 104.3C359.957 104.3 359.9 104.3 359.844 104.3C359.674 104.3 359.56 104.328 359.504 104.385ZM414.31 47.265L414.31 46.5L415.245 46.5C414.962 46.7833 414.877 46.9533 414.99 47.01L415.33 47.18C418.673 47.9167 421.28 48.5967 423.15 49.22C424.34 49.6167 424.963 49.815 425.02 49.815C425.133 49.815 425.247 49.815 425.36 49.815C425.19 49.7583 425.105 49.5033 425.105 49.05C425.558 48.9933 426.04 48.965 426.55 48.965C427.117 48.965 427.627 48.9933 428.08 49.05L427.825 49.305L428.08 49.645C427.91 49.7583 427.627 49.9 427.23 50.07L427.23 50.155C427.173 50.155 426.862 50.1833 426.295 50.24L426.21 50.24L426.125 50.24C425.842 50.1267 425.615 50.0417 425.445 49.985L425.36 49.985L425.275 50.07C426.012 50.75 426.465 51.855 426.635 53.385C426.805 54.915 426.89 55.8217 426.89 56.105L427.145 86.195L427.145 55.17C427.145 52.6767 428.647 50.5233 431.65 48.71C432.783 48.71 433.803 48.625 434.71 48.455C435.56 48.455 436.41 48.455 437.26 48.455C448.933 48.455 456.838 53.5833 460.975 63.84C462.392 67.3533 463.1 71.4333 463.1 76.08C463.1 77.1567 463.043 78.63 462.93 80.5C462.93 80.5567 462.93 80.67 462.93 80.84C462.93 80.9533 462.93 81.0667 462.93 81.18C463.157 80.2167 463.27 78.375 463.27 75.655C463.27 66.2483 460.153 58.825 453.92 53.385C453.863 53.3283 453.807 53.2717 453.75 53.215C454.147 53.4983 454.458 53.64 454.685 53.64C454.572 53.5833 454.543 53.5267 454.6 53.47C454.713 53.4133 454.798 53.3567 454.855 53.3L454.855 53.215C454.855 52.2517 454.345 51.5433 453.325 51.09C452.532 50.6933 451.228 50.1833 449.415 49.56C449.358 49.56 449.302 49.5317 449.245 49.475L449.33 49.475C449.5 49.475 450.18 49.7017 451.37 50.155C453.183 50.835 454.997 51.5717 456.81 52.365C457.377 52.535 457.943 52.705 458.51 52.875C459.247 53.045 459.672 53.1867 459.785 53.3C464.262 56.9833 467.208 61.885 468.625 68.005C469.192 70.4983 469.475 73.2183 469.475 76.165C469.475 80.1317 468.965 83.7017 467.945 86.875C465.338 94.9783 459.955 100.588 451.795 103.705C447.942 105.178 443.918 105.915 439.725 105.915L414.31 105.915L414.31 105.15L421.025 100.9L421.025 51.515L414.31 47.265ZM435.22 47.69L434.795 47.52C435.192 47.52 435.617 47.52 436.07 47.52C436.807 47.52 437.232 47.52 437.345 47.52C438.082 47.5767 438.62 47.605 438.96 47.605C439.47 47.605 439.98 47.605 440.49 47.605L440.15 47.775C442.303 47.8317 444.428 48.1433 446.525 48.71L448.82 49.305L448.565 49.305C446.752 48.795 445.42 48.54 444.57 48.54C444.513 48.54 444.457 48.54 444.4 48.54L444.74 48.71L444.655 48.71C443.295 48.37 441.623 48.1717 439.64 48.115C438.11 48.0583 436.58 48.0017 435.05 47.945L435.05 47.86C435.05 47.8033 435.107 47.7467 435.22 47.69ZM433.86 100.985C433.123 102.232 432.443 103.082 431.82 103.535C432.103 103.592 433.038 103.677 434.625 103.79C435.645 103.847 437.118 103.875 439.045 103.875C439.838 103.875 440.603 103.875 441.34 103.875C443.04 103.648 444.457 103.365 445.59 103.025C446.157 102.855 446.95 102.572 447.97 102.175C449.33 101.665 450.208 101.212 450.605 100.815L450.69 100.73L450.605 100.73C448.735 101.75 447.29 102.26 446.27 102.26L446.27 102.175C447.573 100.872 448.508 99.37 449.075 97.67C452.192 94.5533 454.26 90.6717 455.28 86.025C455.96 82.965 456.3 79.5933 456.3 75.91C456.3 72.0567 455.847 68.4583 454.94 65.115C454.203 62.395 453.098 59.9583 451.625 57.805C449.245 54.235 446.043 51.9967 442.02 51.09C441.113 50.8633 440.207 50.75 439.3 50.75C437.487 50.75 435.673 50.75 433.86 50.75L433.86 100.985ZM462.76 82.03C462.76 82.1433 462.76 82.2283 462.76 82.285C462.817 82.0583 462.845 81.8033 462.845 81.52C462.845 81.4067 462.845 81.3217 462.845 81.265C462.788 81.4917 462.76 81.7467 462.76 82.03ZM427.06 93.25C427.173 91.0967 427.173 88.9433 427.06 86.79C426.947 88.9433 426.947 91.0967 427.06 93.25ZM427.145 97.245C427.258 96.3383 427.258 95.4317 427.145 94.525C427.032 95.4317 427.032 96.3383 427.145 97.245ZM417.285 104.215C417.058 104.328 416.86 104.442 416.69 104.555L416.775 104.555C417.398 104.555 418.192 104.385 419.155 104.045C419.098 104.045 419.042 104.045 418.985 104.045C418.758 104.045 418.192 104.102 417.285 104.215Z" fill="white"/>
<path d="M0.17 118.27L0.17 118.1L5.015 118.1C8.738 118.1 11.22 120.327 11.22 124.05C11.22 127.773 8.738 130 5.015 130L0.17 130L0.17 129.83L1.53 128.98L1.53 119.12L0.17 118.27ZM4.08 129.15L5.015 129.15C7.157 129.15 8.585 127.212 8.585 124.05C8.585 120.888 7.157 118.95 5.015 118.95L4.08 118.95L4.08 129.15ZM22.4473 118.27L22.4473 118.1L27.7173 118.1L27.7173 118.27L26.3573 119.12L26.3573 128.98L27.7173 129.83L27.7173 130L22.4473 130L22.4473 129.83L23.8073 128.98L23.8073 119.12L22.4473 118.27ZM46.2996 122.044L44.8716 119.8C44.3956 119.188 43.7496 118.78 42.7806 118.78C41.6926 118.78 40.8936 119.409 40.8936 120.327C40.8936 121.058 41.4546 121.857 43.4606 122.69C45.8746 123.693 46.9116 125.121 46.9116 126.889C46.9116 129.728 44.3106 130.255 43.0016 130.255C41.3356 130.255 40.3666 129.813 39.3806 129.201L39.0746 126.056L39.2446 126.056L40.5536 128.13C41.0976 128.827 41.9306 129.32 42.9506 129.32C44.1236 129.32 44.9566 128.691 44.9566 127.671C44.9566 126.719 44.4296 125.971 42.4406 125.121C39.2616 123.761 38.9386 122.52 38.9386 121.211C38.9386 118.593 41.1146 117.845 42.6276 117.845C44.1576 117.845 45.1776 118.287 46.1636 118.899L46.4696 122.044L46.2996 122.044ZM64.9197 129.32C66.1267 129.32 66.8067 128.827 67.3167 128.147L68.6427 126.056L68.8127 126.056L68.5067 129.201C67.5207 129.813 66.5007 130.255 64.9707 130.255C61.0947 130.255 58.4767 127.875 58.4767 124.05C58.4767 120.225 61.1457 117.845 64.5117 117.845C66.2967 117.845 67.3167 118.287 68.3027 118.899L68.6087 122.044L68.4387 122.044L67.1637 120.038C66.6197 119.341 65.6677 118.78 64.7327 118.78C62.6927 118.78 61.1117 120.769 61.1117 124.05C61.1117 127.331 62.6417 129.32 64.9197 129.32ZM80.2061 124.05C80.2061 120.327 82.6881 117.845 86.4111 117.845C90.1341 117.845 92.6161 120.327 92.6161 124.05C92.6161 127.773 90.1341 130.255 86.4111 130.255C82.6881 130.255 80.2061 127.773 80.2061 124.05ZM82.8411 124.05C82.8411 127.212 84.2691 129.32 86.4111 129.32C88.5531 129.32 89.9811 127.212 89.9811 124.05C89.9811 120.888 88.5531 118.78 86.4111 118.78C84.2691 118.78 82.8411 120.888 82.8411 124.05ZM115.499 118.27L113.646 119.103L109.481 130.255L104.313 119.103L102.987 118.27L102.987 118.1L108.461 118.1L108.461 118.27L107.118 119.103L110.229 125.801L112.745 119.069L111.079 118.27L111.079 118.1L115.499 118.1L115.499 118.27ZM125.533 118.27L125.533 118.1L134.288 118.1L134.628 121.5L134.458 121.5L132.843 118.95L129.443 118.95L129.443 123.761L131.585 123.761L132.605 122.231L132.775 122.231L132.775 126.141L132.605 126.141L131.585 124.611L129.443 124.611L129.443 129.15L132.843 129.15L134.458 126.6L134.628 126.6L134.288 130L125.533 130L125.533 129.83L126.893 128.98L126.893 119.12L125.533 118.27ZM145.685 129.83L147.045 128.98L147.045 119.12L145.685 118.27L145.685 118.1L150.734 118.1C154.015 118.1 155.868 119.477 155.868 120.973C155.868 122.673 154.44 123.2 152.145 123.965L154.899 128.997L156.446 129.83L156.446 130L152.553 130L149.714 124.798L149.595 124.849L149.595 128.98L150.955 129.83L150.955 130L145.685 130L145.685 129.83ZM149.595 123.965L150.632 123.591C152.298 122.996 153.233 122.367 153.233 121.058C153.233 120.021 152.417 118.95 150.632 118.95L149.595 118.95L149.595 123.965ZM185.926 129.83L187.286 128.98L187.286 124.764L183.682 119.12L182.118 118.27L182.118 118.1L187.864 118.1L187.864 118.27L186.674 118.916L189.343 123.081L191.57 119.103L189.87 118.27L189.87 118.1L194.443 118.1L194.443 118.27L192.505 119.103L189.836 123.863L189.836 128.98L191.196 129.83L191.196 130L185.926 130L185.926 129.83ZM203.876 124.05C203.876 120.327 206.358 117.845 210.081 117.845C213.804 117.845 216.286 120.327 216.286 124.05C216.286 127.773 213.804 130.255 210.081 130.255C206.358 130.255 203.876 127.773 203.876 124.05ZM206.511 124.05C206.511 127.212 207.939 129.32 210.081 129.32C212.223 129.32 213.651 127.212 213.651 124.05C213.651 120.888 212.223 118.78 210.081 118.78C207.939 118.78 206.511 120.888 206.511 124.05ZM227.506 118.27L227.506 118.1L232.776 118.1L232.776 118.27L231.416 119.12L231.416 124.798C231.416 127.96 232.504 129.32 234.204 129.32C236.363 129.32 237.434 127.96 237.434 124.798L237.434 119.12L236.074 118.27L236.074 118.1L239.644 118.1L239.644 118.27L238.284 119.12L238.284 124.798C238.284 128.521 236.499 130.255 233.966 130.255C230.838 130.255 228.866 128.521 228.866 124.798L228.866 119.12L227.506 118.27ZM250.531 129.83L251.891 128.98L251.891 119.12L250.531 118.27L250.531 118.1L255.58 118.1C258.861 118.1 260.714 119.477 260.714 120.973C260.714 122.673 259.286 123.2 256.991 123.965L259.745 128.997L261.292 129.83L261.292 130L257.399 130L254.56 124.798L254.441 124.849L254.441 128.98L255.801 129.83L255.801 130L250.531 130L250.531 129.83ZM254.441 123.965L255.478 123.591C257.144 122.996 258.079 122.367 258.079 121.058C258.079 120.021 257.263 118.95 255.478 118.95L254.441 118.95L254.441 123.965ZM293.916 129.32C295.123 129.32 295.803 128.827 296.313 128.147L297.639 126.056L297.809 126.056L297.503 129.201C296.517 129.813 295.497 130.255 293.967 130.255C290.091 130.255 287.473 127.875 287.473 124.05C287.473 120.225 290.142 117.845 293.508 117.845C295.293 117.845 296.313 118.287 297.299 118.899L297.605 122.044L297.435 122.044L296.16 120.038C295.616 119.341 294.664 118.78 293.729 118.78C291.689 118.78 290.108 120.769 290.108 124.05C290.108 127.331 291.638 129.32 293.916 129.32ZM308.863 118.27L308.863 118.1L314.133 118.1L314.133 118.27L312.773 119.12L312.773 123.761L317.023 123.761L317.023 119.12L315.663 118.27L315.663 118.1L320.933 118.1L320.933 118.27L319.573 119.12L319.573 128.98L320.933 129.83L320.933 130L315.663 130L315.663 129.83L317.023 128.98L317.023 124.611L312.773 124.611L312.773 128.98L314.133 129.83L314.133 130L308.863 130L308.863 129.83L310.223 128.98L310.223 119.12L308.863 118.27ZM331.311 129.83L333.504 128.997L334.643 125.954L334.643 125.937L337.669 117.845L342.837 128.997L344.163 129.83L344.163 130L338.689 130L338.689 129.83L340.032 128.997L338.995 126.787L335.255 126.787L334.405 129.031L336.071 129.83L336.071 130L331.311 130L331.311 129.83ZM335.561 125.937L338.604 125.937L336.921 122.299L335.561 125.937ZM354.53 129.83L355.89 128.98L355.89 119.12L354.53 118.27L354.53 118.1L359.579 118.1C362.86 118.1 364.713 119.477 364.713 120.973C364.713 122.673 363.285 123.2 360.99 123.965L363.744 128.997L365.291 129.83L365.291 130L361.398 130L358.559 124.798L358.44 124.849L358.44 128.98L359.8 129.83L359.8 130L354.53 130L354.53 129.83ZM358.44 123.965L359.477 123.591C361.143 122.996 362.078 122.367 362.078 121.058C362.078 120.021 361.262 118.95 359.477 118.95L358.44 118.95L358.44 123.965ZM375.666 129.83L377.859 128.997L378.998 125.954L378.998 125.937L382.024 117.845L387.192 128.997L388.518 129.83L388.518 130L383.044 130L383.044 129.83L384.387 128.997L383.35 126.787L379.61 126.787L378.76 129.031L380.426 129.83L380.426 130L375.666 130L375.666 129.83ZM379.916 125.937L382.959 125.937L381.276 122.299L379.916 125.937ZM405.021 129.32C406.228 129.32 406.908 128.827 407.418 128.147L408.744 126.056L408.914 126.056L408.608 129.201C407.622 129.813 406.602 130.255 405.072 130.255C401.196 130.255 398.578 127.875 398.578 124.05C398.578 120.225 401.247 117.845 404.613 117.845C406.398 117.845 407.418 118.287 408.404 118.899L408.71 122.044L408.54 122.044L407.265 120.038C406.721 119.341 405.769 118.78 404.834 118.78C402.794 118.78 401.213 120.769 401.213 124.05C401.213 127.331 402.743 129.32 405.021 129.32ZM421.837 129.83L423.197 128.98L423.197 118.95L421.752 118.95L420.137 121.5L419.967 121.5L420.307 118.1L428.637 118.1L428.977 121.5L428.807 121.5L427.192 118.95L425.747 118.95L425.747 128.98L427.107 129.83L427.107 130L421.837 130L421.837 129.83ZM439.854 118.27L439.854 118.1L448.609 118.1L448.949 121.5L448.779 121.5L447.164 118.95L443.764 118.95L443.764 123.761L445.906 123.761L446.926 122.231L447.096 122.231L447.096 126.141L446.926 126.141L445.906 124.611L443.764 124.611L443.764 129.15L447.164 129.15L448.779 126.6L448.949 126.6L448.609 130L439.854 130L439.854 129.83L441.214 128.98L441.214 119.12L439.854 118.27ZM460.006 129.83L461.366 128.98L461.366 119.12L460.006 118.27L460.006 118.1L465.055 118.1C468.336 118.1 470.189 119.477 470.189 120.973C470.189 122.673 468.761 123.2 466.466 123.965L469.22 128.997L470.767 129.83L470.767 130L466.874 130L464.035 124.798L463.916 124.849L463.916 128.98L465.276 129.83L465.276 130L460.006 130L460.006 129.83ZM463.916 123.965L464.953 123.591C466.619 122.996 467.554 122.367 467.554 121.058C467.554 120.021 466.738 118.95 464.953 118.95L463.916 118.95L463.916 123.965Z" fill="white"/>
</svg>
